<svg xmlns="http://www.w3.org/2000/svg" width="23" height="21" viewBox="0 0 23 21" fill="none"><path d="M12.2726 18.6058C12.0702 18.4269 11.8591 18.2474 11.6574 18.0485C11.4962 18.1975 11.3451 18.3371 11.1853 18.4761C9.18944 20.1966 7.1322 20.9129 5.9127 20.2166C4.733 19.5502 4.36135 17.5816 4.8335 15.1049C4.88386 14.8365 4.94434 14.568 5.01494 14.2995C4.80315 14.2372 4.60147 14.1798 4.39979 14.1125C1.88862 13.2554 0.235413 11.8634 0.235413 10.4708C0.235413 9.12863 1.778 7.82577 4.18733 6.99045C4.45713 6.90068 4.74177 6.81154 5.0345 6.73175C4.96705 6.47305 4.91376 6.22432 4.86318 5.9837C4.35865 3.46963 4.71141 1.46111 5.90124 0.784753C7.14097 0.0684954 9.1982 0.834623 11.2642 2.63431C11.3849 2.7434 11.5064 2.86308 11.6372 2.98215C11.8288 2.80324 12.0102 2.62433 12.2018 2.46537C14.1578 0.78226 16.1031 0.0784694 17.2929 0.754831C18.5326 1.45052 18.8962 3.59867 18.3418 6.25424C18.3114 6.4238 18.2743 6.58276 18.2311 6.75294C18.4834 6.82276 18.735 6.90193 18.967 6.98172C21.4269 7.81704 23.0201 9.1199 22.9999 10.4919C22.9999 11.8939 21.2961 13.2766 18.6831 14.1318C18.5421 14.1717 18.4011 14.2216 18.2595 14.2609C18.3202 14.4597 18.36 14.6586 18.4004 14.8574C18.9245 17.4332 18.5212 19.5415 17.3017 20.2378C16.9814 20.416 16.6131 20.5068 16.2393 20.4996C15.1217 20.4977 13.7025 19.8176 12.2726 18.6058ZM14.2489 14.9559C13.6698 15.7885 13.0333 16.5858 12.3434 17.3428C12.535 17.5299 12.7265 17.7013 12.9181 17.8602C14.5814 19.2722 16.1139 19.7996 16.8302 19.3919C17.049 19.2177 17.2277 19.0048 17.3558 18.7657C17.484 18.5266 17.5589 18.2662 17.5762 17.9999C17.7218 17.013 17.6807 16.0102 17.4548 15.0364C17.4244 14.8574 17.3873 14.6785 17.3341 14.4897C16.3183 14.7094 15.2875 14.8652 14.2489 14.9559ZM5.80006 15.2745C5.38726 17.394 5.68944 18.9736 6.40711 19.3819C6.66137 19.4801 6.93589 19.5254 7.21121 19.5147C7.48653 19.5039 7.75592 19.4373 8.00029 19.3196C8.95095 18.9503 9.81673 18.4169 10.5513 17.748C10.7023 17.6283 10.8433 17.4893 10.9951 17.3503C10.29 16.593 9.63673 15.7959 9.03902 14.9634C8.00436 14.8835 6.97689 14.7377 5.96396 14.5271C5.90124 14.787 5.85065 15.0351 5.80006 15.2745ZM11.6682 16.6665C12.1121 16.179 12.5552 15.6423 12.999 15.0457C12.5552 15.0656 12.0918 15.0756 11.6278 15.0756C11.1637 15.0756 10.7307 15.0656 10.297 15.0457C10.7502 15.6317 11.2042 16.179 11.6676 16.6665H11.6682ZM9.5503 6.96053C9.16718 7.50723 8.79418 8.0826 8.44141 8.69102C8.08865 9.28759 7.76691 9.89413 7.4735 10.4988C7.77635 11.0954 8.09877 11.7019 8.45153 12.3191C8.8043 12.9156 9.1773 13.5035 9.56041 14.0589C10.2255 14.0988 10.9216 14.1212 11.6271 14.1212C12.3326 14.1212 13.0382 14.1013 13.714 14.052C14.0769 13.5053 14.4499 12.9181 14.8033 12.3116C15.1568 11.705 15.4886 11.0885 15.7814 10.4919C15.4886 9.90535 15.1561 9.29881 14.8033 8.69164C14.4506 8.08447 14.0776 7.50723 13.7046 6.96115C13.0301 6.91128 12.3333 6.88136 11.6278 6.88136C10.9222 6.88136 10.2261 6.91066 9.5503 6.96053ZM6.22365 13.6132C6.91538 13.7592 7.61552 13.8689 8.32068 13.9417C8.07853 13.5639 7.83706 13.1856 7.60503 12.7878C7.38312 12.4001 7.16121 12.0124 6.95953 11.6246C6.66747 12.3004 6.42533 12.968 6.22365 13.6132ZM15.6498 12.7779C15.4178 13.1756 15.1858 13.5533 14.9544 13.9218C15.6701 13.8389 16.3804 13.7194 17.0818 13.5639C16.8628 12.8926 16.607 12.2321 16.3156 11.5847C16.1038 11.9824 15.8819 12.3802 15.6498 12.7779ZM4.49962 7.90494C2.44306 8.6212 1.20332 9.66411 1.20332 10.4807C1.24253 10.7434 1.33749 10.9964 1.48276 11.2251C1.62802 11.4538 1.82073 11.6538 2.04983 11.8135C2.83668 12.425 3.73902 12.897 4.71141 13.2055C4.89285 13.2678 5.08441 13.3152 5.27597 13.3751C5.58566 12.3969 5.95935 11.437 6.39497 10.5007C5.95851 9.5804 5.58808 8.63456 5.28609 7.66931C5.01404 7.73663 4.75188 7.81518 4.49962 7.90494ZM16.87 10.4807C17.3174 11.4051 17.7004 12.355 18.0167 13.3246C18.1482 13.2847 18.279 13.2448 18.3998 13.2049C20.6479 12.4693 22.0421 11.3453 22.0495 10.4701C22.0495 9.65475 20.7592 8.6 18.652 7.88437C18.4402 7.81518 18.2089 7.74536 17.9775 7.67554C17.6721 8.63106 17.3022 9.56795 16.87 10.4807ZM15.6404 8.19356C15.8724 8.59128 16.0943 8.97964 16.2953 9.36738C16.5754 8.73369 16.8177 8.08628 17.0211 7.42806C16.3363 7.27429 15.643 7.15484 14.9443 7.07024C15.1864 7.43741 15.4178 7.80582 15.6397 8.19356H15.6404ZM6.23377 7.41996C6.43612 8.05642 6.67759 8.70286 6.95953 9.36862C7.16188 8.98089 7.38312 8.59315 7.60503 8.20541C7.82694 7.81767 8.0583 7.4399 8.30044 7.07149C7.57468 7.15938 6.88938 7.27845 6.23377 7.41996ZM12.8371 3.19347C12.6658 3.34246 12.4945 3.50142 12.3225 3.66101C13.0226 4.40873 13.666 5.20022 14.2482 6.02983C15.2742 6.12136 16.2917 6.28094 17.2929 6.50733C17.3334 6.35835 17.3604 6.20874 17.3941 6.05975C17.8662 3.77259 17.5755 2.02215 16.8093 1.58517C16.6411 1.49792 16.4503 1.45481 16.2576 1.46049C15.434 1.45675 14.17 2.04958 12.8371 3.1916V3.19347ZM6.38485 1.6101C5.66921 2.01779 5.38659 3.64854 5.81018 5.79669C5.86077 6.02547 5.91135 6.25362 5.97138 6.49237C6.97395 6.2743 7.99109 6.11812 9.01609 6.02484C9.60036 5.19419 10.2472 4.40262 10.9519 3.65602C10.8413 3.5463 10.7199 3.44719 10.6093 3.34745C9.2063 2.12127 7.85729 1.47421 6.97639 1.47421C6.76937 1.46768 6.56448 1.51475 6.38485 1.6101ZM12.9781 5.94567C12.5624 5.3897 12.1138 4.85528 11.6345 4.34485C11.1812 4.8317 10.7273 5.36905 10.2855 5.94567C10.7293 5.92573 11.1725 5.91575 11.6264 5.91575C12.0804 5.91575 12.535 5.92386 12.9788 5.94567H12.9781ZM9.611 10.5206C9.60155 10.265 9.64676 10.0102 9.74406 9.77083C9.84135 9.53142 9.9888 9.3121 10.178 9.12546C10.3671 8.93882 10.5943 8.78851 10.8464 8.68315C11.0986 8.57779 11.3707 8.51945 11.6473 8.51148C12.2054 8.52906 12.7331 8.75042 13.1148 9.12705C13.4966 9.50367 13.7011 10.0048 13.6837 10.5206C13.7017 11.0368 13.4973 11.5386 13.1153 11.9156C12.7334 12.2927 12.2052 12.5142 11.6467 12.5316C11.3699 12.5237 11.0976 12.4653 10.8454 12.3598C10.5932 12.2543 10.3659 12.1038 10.1768 11.917C9.98765 11.7301 9.8403 11.5106 9.74321 11.2709C9.64611 11.0313 9.60118 10.7763 9.611 10.5206Z" fill="#2AC7E3"></path></svg>